<svg version="1.1" id="Layer_1_xA0_Image_1_" xmlns="http://www.w3.org/2000/svg" xmlns:xlink="http://www.w3.org/1999/xlink"
	 x="0px" y="0px" width="83px" height="39px" viewBox="0 0 166 78" enable-background="new 0 0 166 78" xml:space="preserve">
<g>
	<g>
			
		<path fill-rule="evenodd" clip-rule="evenodd" fill="#9d9d9d" d="M5,52c1.444-0.337,2.889-0.675,4.268-0.996c0.208-0.371,0.432-0.629,0.506-0.925
			c0.521-2.071,1.012-4.151,1.512-6.229c0.945,2.303,1.889,4.605,3.002,7.317c1.198,0,2.96,0,4.792,0
			c-0.758-2.64-1.776-5.063-2.118-7.577c-1.145-8.41,4.735-14.614,13.065-12.938c4.485,0.903,8.599,3.814,12.773,6.021
			c1.802,0.953,3.335,2.415,5.171,3.779c0-5.287,0-9.858,0-15.048c-1.872,0.904-3.2,1.546-4.838,2.337
			c0.598-3.969,6.4-4.651,5.019-9.71c-0.922-3.375-0.175-7.206-0.175-10.893c8.595,0,16.72-0.396,24.777,0.168
			c3.971,0.278,8.036,2.521,8.096,7.389c0.055,4.502-3.008,7.62-7.223,8.379c-5.492,0.989-11.151,1.046-17.134,1.536
			c0,4.135,0,8.37,0,13.291c3.46,0,7.047-0.068,10.63,0.013c12.118,0.275,19.184,8.204,17.931,20.055
			c-0.968,9.163-12.022,16.341-22.058,14.568c-4.751-0.839-9.056-2.031-11.563-7.235c2.812-0.833,5.404-1.602,8.243-2.443
			c0.622,1.426,1.023,2.684,1.679,3.79c2.687,4.528,8.114,4.578,10.972,0.146c3.605-5.59,3.004-16.979-1.174-22.23
			c-3.833-4.818-8.892-5.77-16.705-2.853c1.358,5.432,2.735,10.938,4.072,16.284c-0.537,0.445-0.757,0.776-1.038,0.84
			c-6.772,1.518-7.112,1.581-8.515-5.377c-2.01-9.972-8.223-15.974-17.502-18.47c-2.929-0.788-7.431,0.536-9.755,2.565
			c-1.506,1.314-1.096,5.891-0.231,8.585c1.095,3.41,3.9,5.64,8.082,5.336c3.148-0.229,6.343-0.219,9.482,0.066
			c1.083,0.099,2.062,1.348,3.088,2.071c-1.017,0.545-2.026,1.547-3.051,1.563c-8.315,0.128-16.633,0.071-25.225,0.071
			c-0.3,1.069-0.412,2.03-0.839,2.821c-0.381,0.706-1.027,1.4-1.73,1.73c-0.24,0.112-1.48-0.92-1.458-1.39
			C10.021,54.606,7.097,55.423,5,55C5,54,5,53,5,52z M56.308,22.365c4.437-1.461,8.293-2.347,11.743-4.055
			c1.392-0.689,2.603-3.188,2.58-4.845c-0.019-1.37-1.764-3.572-3.112-3.902c-3.563-0.875-7.327-0.934-11.211-1.337
			C56.308,13.192,56.308,17.146,56.308,22.365z
			
			M163,37c-2.945,3.961-5.811,7.986-8.894,11.837
			c-0.72,0.898-2.176,1.208-3.293,1.788c-0.288-0.449-0.577-0.898-0.864-1.348c2.188-3.257,4.378-6.515,6.766-10.067
			c-7.084,0-13.791-0.107-20.486,0.137c-0.828,0.03-2.126,1.857-2.273,2.975c-0.342,2.576-0.108,5.228-0.108,9.252
			c-5.294-3.228-2.517-8.04-4.322-11.39c-3.509,0-7.222,0-11.216,0c0,4.127,0,7.894,0,12.275c1.52-0.782,2.847-1.465,4.174-2.147
			c-7.192,5.443-3.711,13.415-4.639,20.448c-8.404,0-16.652,0.355-24.846-0.156c-3.842-0.24-7.646-2.505-7.839-7.067
			c-0.191-4.526,2.825-7.473,6.985-8.574c3.146-0.832,6.532-0.834,9.821-1.036c2.442-0.15,4.901-0.029,7.63-0.029
			c0-4.829,0-9.063,0-13.806c-3.744,0-7.357,0.081-10.965-0.015c-12.019-0.322-19.124-8.509-17.673-20.285
			c1.102-8.938,12.114-16.13,21.783-14.396c4.699,0.843,9.142,1.878,11.808,7.233c-2.686,0.854-5.221,1.658-7.643,2.427
			c-0.439-0.333-0.823-0.474-0.932-0.73c-1.461-3.483-3.041-6.977-7.729-6.251c-4.405,0.682-5.93,4.262-6.156,7.987
			c-0.264,4.352-0.434,8.98,0.742,13.092c2.391,8.347,9.416,10.802,18.714,7.042c-1.363-5.445-2.741-10.952-4.171-16.66
			c1.719-0.43,3.025-0.608,4.215-1.083c2.943-1.173,4.07-0.181,4.719,2.875c1.061,4.998,2.679,9.878,4.129,15.046
			c2.979,0,5.912,0,8.74,0c2.635-3.369-1.873-8.585,3.523-11.844c0.257,4.12,0.469,7.519,0.676,10.867c7.749,0,15.14,0,23.723,0
			c-3.146-3.975-5.535-6.993-8.061-10.184c1.549-3.118,2.934-1.807,4.544,0.092c3.073,3.62,6.271,7.136,9.417,10.695
			C163,36.333,163,36.667,163,37z M109.896,55.98c-3.846,0.875-6.811,1.261-9.558,2.252c-3.084,1.113-5.788,3.042-5.054,6.958
			c0.59,3.142,5.93,4.883,11.705,4.478c4.336-0.304,2.66-3.41,2.854-5.54C110.066,61.685,109.896,59.206,109.896,55.98z"/>
	</g>
</g>
</svg>
